<?xml version="1.0" standalone="no"?>
<!DOCTYPE svg PUBLIC "-//W3C//DTD SVG 20010904//EN"
 "http://www.w3.org/TR/2001/REC-SVG-20010904/DTD/svg10.dtd">
<svg version="1.0" xmlns="http://www.w3.org/2000/svg"
 width="512.000000pt" height="512.000000pt" viewBox="0 0 512.000000 512.000000"
 preserveAspectRatio="xMidYMid meet">
<metadata>
Created by potrace 1.14, written by Peter Selinger 2001-2017
</metadata>
<g transform="translate(0.000000,512.000000) scale(0.100000,-0.100000)"
fill="#000000" stroke="none">
<path d="M1205 4953 c-78 -7 -290 -44 -369 -64 -130 -32 -313 -97 -421 -149
-55 -26 -116 -51 -135 -55 -103 -22 -194 -93 -238 -184 l-27 -56 0 -1175 0
-1175 23 -49 c63 -138 181 -221 328 -230 63 -5 134 13 225 57 148 71 343 136
484 161 17 3 39 8 50 10 163 31 441 27 645 -10 121 -21 358 -98 452 -145 45
-23 64 -51 67 -100 0 -12 14 -33 29 -47 l29 -27 210 0 c247 1 252 2 277 89 9
30 21 58 26 61 5 3 5 -7 -1 -25 -26 -72 10 -128 118 -185 l62 -32 -319 -427
c-175 -235 -333 -448 -350 -474 -80 -120 -80 -278 0 -402 37 -58 78 -92 150
-128 48 -23 67 -27 150 -27 82 0 103 4 150 26 73 35 130 86 163 147 15 27 84
211 153 408 69 198 150 429 180 514 30 85 56 161 59 168 3 9 24 2 72 -22 85
-44 115 -49 164 -30 33 14 83 73 100 119 2 6 21 42 42 81 l38 71 97 6 c93 6
127 10 182 23 14 3 32 7 40 9 8 2 49 15 90 30 105 38 197 89 280 154 24 20 41
31 37 25 -7 -13 90 -60 148 -72 162 -33 331 52 407 206 l33 67 3 1145 c3 1201
3 1212 -41 1289 -49 87 -111 131 -224 162 -43 11 -109 35 -148 53 -136 64
-331 128 -492 161 -87 19 -84 18 -203 36 -135 20 -507 17 -630 -5 -14 -2 -43
-7 -66 -10 -173 -22 -474 -117 -665 -210 l-75 -37 -90 41 c-235 110 -453 177
-704 216 -99 15 -463 26 -565 17z"/>
</g>
</svg>
